<svg width="40" height="40" viewBox="0 0 40 40" fill="none" xmlns="http://www.w3.org/2000/svg">
<path fill-rule="evenodd" clip-rule="evenodd" d="M24.7887 2.25352C25.411 2.25352 25.9155 1.74905 25.9155 1.12676C25.9155 0.504468 25.411 0 24.7887 0C24.1664 0 23.662 0.504468 23.662 1.12676C23.662 1.74905 24.1664 2.25352 24.7887 2.25352ZM17.4648 6.19712C17.4648 7.44171 16.4559 8.45065 15.2113 8.45065C13.9667 8.45065 12.9577 7.44171 12.9577 6.19712C12.9577 4.95254 13.9667 3.9436 15.2113 3.9436C16.4559 3.9436 17.4648 4.95254 17.4648 6.19712ZM28.7324 14.9296C28.7324 16.952 27.0929 18.5915 25.0704 18.5915C23.048 18.5915 21.4084 16.952 21.4084 14.9296C21.4084 12.9071 23.048 11.2676 25.0704 11.2676C27.0929 11.2676 28.7324 12.9071 28.7324 14.9296ZM14.9296 28.7324C16.952 28.7324 18.5916 27.0929 18.5916 25.0704C18.5916 23.048 16.952 21.4084 14.9296 21.4084C12.9071 21.4084 11.2676 23.048 11.2676 25.0704C11.2676 27.0929 12.9071 28.7324 14.9296 28.7324ZM25.0704 28.7324C27.0929 28.7324 28.7324 27.0929 28.7324 25.0704C28.7324 23.048 27.0929 21.4084 25.0704 21.4084C23.048 21.4084 21.4084 23.048 21.4084 25.0704C21.4084 27.0929 23.048 28.7324 25.0704 28.7324ZM14.9296 18.5915C16.952 18.5915 18.5916 16.952 18.5916 14.9296C18.5916 12.9071 16.952 11.2676 14.9296 11.2676C12.9071 11.2676 11.2676 12.9071 11.2676 14.9296C11.2676 16.952 12.9071 18.5915 14.9296 18.5915ZM15.2113 36.0564C16.4559 36.0564 17.4648 35.0474 17.4648 33.8028C17.4648 32.5583 16.4559 31.5493 15.2113 31.5493C13.9667 31.5493 12.9577 32.5583 12.9577 33.8028C12.9577 35.0474 13.9667 36.0564 15.2113 36.0564ZM9.01408 32.9577C9.01408 34.0467 8.13126 34.9295 7.04225 34.9295C5.95324 34.9295 5.07042 34.0467 5.07042 32.9577C5.07042 31.8687 5.95324 30.9858 7.04225 30.9858C8.13126 30.9858 9.01408 31.8687 9.01408 32.9577ZM6.19719 27.0422C7.44177 27.0422 8.45071 26.0333 8.45071 24.7887C8.45071 23.5441 7.44177 22.5352 6.19719 22.5352C4.9526 22.5352 3.94367 23.5441 3.94367 24.7887C3.94367 26.0333 4.9526 27.0422 6.19719 27.0422ZM8.45071 15.2113C8.45071 16.4559 7.44177 17.4648 6.19719 17.4648C4.9526 17.4648 3.94367 16.4559 3.94367 15.2113C3.94367 13.9667 4.9526 12.9578 6.19719 12.9578C7.44177 12.9578 8.45071 13.9667 8.45071 15.2113ZM1.12676 16.338C1.74905 16.338 2.25352 15.8336 2.25352 15.2113C2.25352 14.589 1.74905 14.0845 1.12676 14.0845C0.504468 14.0845 0 14.589 0 15.2113C0 15.8336 0.504468 16.338 1.12676 16.338ZM40 15.2112C40 15.8335 39.4955 16.338 38.8732 16.338C38.2509 16.338 37.7465 15.8335 37.7465 15.2112C37.7465 14.5889 38.2509 14.0845 38.8732 14.0845C39.4955 14.0845 40 14.5889 40 15.2112ZM25.9155 38.8733C25.9155 39.4956 25.411 40.0001 24.7887 40.0001C24.1664 40.0001 23.662 39.4956 23.662 38.8733C23.662 38.251 24.1664 37.7466 24.7887 37.7466C25.411 37.7466 25.9155 38.251 25.9155 38.8733ZM15.2113 2.25352C15.8336 2.25352 16.338 1.74905 16.338 1.12676C16.338 0.504468 15.8336 0 15.2113 0C14.589 0 14.0845 0.504468 14.0845 1.12676C14.0845 1.74905 14.589 2.25352 15.2113 2.25352ZM16.338 38.8733C16.338 39.4956 15.8336 40.0001 15.2113 40.0001C14.589 40.0001 14.0845 39.4956 14.0845 38.8733C14.0845 38.251 14.589 37.7466 15.2113 37.7466C15.8336 37.7466 16.338 38.251 16.338 38.8733ZM1.12676 25.9155C1.74905 25.9155 2.25352 25.411 2.25352 24.7887C2.25352 24.1664 1.74905 23.662 1.12676 23.662C0.504468 23.662 0 24.1664 0 24.7887C0 25.411 0.504468 25.9155 1.12676 25.9155ZM40 24.7886C40 25.4109 39.4955 25.9154 38.8732 25.9154C38.2509 25.9154 37.7465 25.4109 37.7465 24.7886C37.7465 24.1663 38.2509 23.6619 38.8732 23.6619C39.4955 23.6619 40 24.1663 40 24.7886ZM7.04225 9.01398C8.13126 9.01398 9.01408 8.13116 9.01408 7.04214C9.01408 5.95313 8.13126 5.07031 7.04225 5.07031C5.95324 5.07031 5.07042 5.95313 5.07042 7.04214C5.07042 8.13116 5.95324 9.01398 7.04225 9.01398ZM27.0422 6.19712C27.0422 7.44171 26.0333 8.45065 24.7887 8.45065C23.5441 8.45065 22.5352 7.44171 22.5352 6.19712C22.5352 4.95254 23.5441 3.9436 24.7887 3.9436C26.0333 3.9436 27.0422 4.95254 27.0422 6.19712ZM24.7887 36.0564C26.0333 36.0564 27.0422 35.0474 27.0422 33.8028C27.0422 32.5583 26.0333 31.5493 24.7887 31.5493C23.5441 31.5493 22.5352 32.5583 22.5352 33.8028C22.5352 35.0474 23.5441 36.0564 24.7887 36.0564ZM34.9296 32.9577C34.9296 34.0467 34.0468 34.9295 32.9577 34.9295C31.8687 34.9295 30.9859 34.0467 30.9859 32.9577C30.9859 31.8687 31.8687 30.9858 32.9577 30.9858C34.0468 30.9858 34.9296 31.8687 34.9296 32.9577ZM33.8028 27.0422C35.0474 27.0422 36.0563 26.0333 36.0563 24.7887C36.0563 23.5441 35.0474 22.5352 33.8028 22.5352C32.5582 22.5352 31.5493 23.5441 31.5493 24.7887C31.5493 26.0333 32.5582 27.0422 33.8028 27.0422ZM36.0563 15.2113C36.0563 16.4559 35.0474 17.4648 33.8028 17.4648C32.5582 17.4648 31.5493 16.4559 31.5493 15.2113C31.5493 13.9667 32.5582 12.9578 33.8028 12.9578C35.0474 12.9578 36.0563 13.9667 36.0563 15.2113ZM32.9577 9.01398C34.0468 9.01398 34.9296 8.13116 34.9296 7.04214C34.9296 5.95313 34.0468 5.07031 32.9577 5.07031C31.8687 5.07031 30.9859 5.95313 30.9859 7.04214C30.9859 8.13116 31.8687 9.01398 32.9577 9.01398Z" fill="#51A856"/>
</svg>
